<svg id="Layer_1" height="512" viewBox="0 0 1000 1000" width="512" xmlns="http://www.w3.org/2000/svg" data-name="Layer 1"><path d="m667.8 766.27h-335.6a16 16 0 0 1 -16-16v-72.65c0-48.59 19.28-88 55.76-114 31.74-22.59 75.89-34.54 127.67-34.54h.74c51.78 0 95.93 12 127.67 34.54 36.48 26 55.76 65.37 55.76 114v72.65a16 16 0 0 1 -16 16zm-319.6-32h303.6v-56.65c0-105.15-105.9-116.5-151.43-116.5h-.74c-45.53 0-151.43 11.35-151.43 116.5z"/><path d="m500 509a106 106 0 1 1 106-106 106.15 106.15 0 0 1 -106 106zm0-180a74 74 0 1 0 74 74 74.11 74.11 0 0 0 -74-74z"/><path d="m900 703h-232.2a16 16 0 0 1 0-32h216.2v-56.62c0-105.15-105.91-116.5-151.44-116.5h-.73c-40.63 0-112.94 8.48-140.61 65.25a16 16 0 0 1 -28.77-14c13.69-28.08 36.71-49.59 68.41-63.92 28.34-12.81 62.31-19.31 101-19.31h.73c51.78 0 95.93 11.95 127.68 34.54 36.48 26 55.76 65.38 55.76 114v72.56a16 16 0 0 1 -16.03 16z"/><path d="m732.2 445.78a106 106 0 1 1 106-106 106.14 106.14 0 0 1 -106 106zm0-180a74 74 0 1 0 74 74 74.11 74.11 0 0 0 -74-74.05z"/><path d="m332.2 703h-232.2a16 16 0 0 1 -16-16v-72.62c0-48.58 19.28-88 55.76-114 31.75-22.59 75.9-34.54 127.68-34.54h.73c38.66 0 72.63 6.5 101 19.31 31.7 14.33 54.72 35.84 68.41 63.92a16 16 0 0 1 -28.77 14c-27.67-56.77-100-65.25-140.61-65.25h-.73c-45.53 0-151.44 11.35-151.44 116.5v56.68h216.17a16 16 0 1 1 0 32z"/><path d="m267.8 445.78a106 106 0 1 1 106-106 106.14 106.14 0 0 1 -106 106zm0-180a74 74 0 1 0 74 74 74.1 74.1 0 0 0 -74-74.05z"/></svg>