<svg width="28" height="28" viewBox="0 0 28 28" fill="none" xmlns="http://www.w3.org/2000/svg">
<path d="M11.3333 4.66667H16.6667C16.6667 3.19391 15.4728 2 14 2C12.5272 2 11.3333 3.19391 11.3333 4.66667ZM9.33333 4.66667C9.33333 2.08933 11.4227 0 14 0C16.5773 0 18.6667 2.08933 18.6667 4.66667H26.3333C26.8856 4.66667 27.3333 5.11439 27.3333 5.66667C27.3333 6.21895 26.8856 6.66667 26.3333 6.66667H24.5745L23.0119 22.8149C22.7639 25.3779 20.61 27.3333 18.0351 27.3333H9.96492C7.39005 27.3333 5.2362 25.3779 4.98817 22.8149L3.42544 6.66667H1.66666C1.11438 6.66667 0.666664 6.21895 0.666664 5.66667C0.666664 5.11439 1.11438 4.66667 1.66666 4.66667H9.33333ZM12 11C12 10.4477 11.5523 10 11 10C10.4477 10 10 10.4477 10 11V21C10 21.5523 10.4477 22 11 22C11.5523 22 12 21.5523 12 21V11ZM17 10C17.5523 10 18 10.4477 18 11V21C18 21.5523 17.5523 22 17 22C16.4477 22 16 21.5523 16 21V11C16 10.4477 16.4477 10 17 10ZM6.97888 22.6223C7.12769 24.16 8.42 25.3333 9.96492 25.3333H18.0351C19.58 25.3333 20.8723 24.16 21.0211 22.6223L22.5652 6.66667H5.43477L6.97888 22.6223Z" />
</svg>
