<svg width="21" height="19" viewBox="0 0 21 19" fill="none" xmlns="http://www.w3.org/2000/svg">
<path d="M15.9543 3.09995C16.7656 2.28874 18.0809 2.28874 18.8921 3.09995C19.7034 3.91116 19.7034 5.22639 18.8921 6.0376C18.8655 6.06419 18.8414 6.09228 18.8196 6.12159L14.6389 10.3011C14.3766 10.5634 13.9513 10.5635 13.689 10.3012C13.4268 10.039 13.4267 9.614 13.6887 9.3517L17.5226 5.52906C17.8158 5.23671 17.8165 4.76204 17.5242 4.46885C17.2318 4.17566 16.7571 4.17498 16.4639 4.46732L12.6288 8.29122C11.7809 9.139 11.7809 10.5136 12.6288 11.3614C13.4766 12.2092 14.8512 12.2092 15.699 11.3615L20.0237 7.03801C20.0622 6.99947 20.0957 6.95779 20.1241 6.91378C21.3466 5.50875 21.2894 3.37669 19.9524 2.03975C18.5556 0.643009 16.2909 0.642999 14.8941 2.03973L11.2159 5.71752C10.9231 6.01028 10.9231 6.48495 11.2159 6.77773C11.5087 7.0705 11.9833 7.07052 12.2761 6.77776L15.9543 3.09995ZM11.0823 10.5763L9.9962 11.148L1.49944 6.67647V6.24765L1.50523 6.10419C1.57821 5.20521 2.33095 4.4984 3.24878 4.4984H11.021L12.5205 2.99905H3.24878L3.06442 3.00419C1.35594 3.09976 0 4.51537 0 6.24765V15.7436L0.00514007 15.9279C0.10072 17.6363 1.5164 18.9922 3.24878 18.9922H16.7437L16.9281 18.987C18.6365 18.8915 19.9925 17.4759 19.9925 15.7436V8.48222L18.493 9.9812V15.7436L18.4872 15.887C18.4143 16.786 17.6615 17.4928 16.7437 17.4928H3.24878L3.1053 17.487C2.20628 17.4141 1.49944 16.6614 1.49944 15.7436V8.37074L9.6471 12.6586L9.7431 12.7008C9.9394 12.7713 10.1581 12.7572 10.3454 12.6586L11.7717 11.9078C11.4285 11.5143 11.1987 11.0562 11.0823 10.5763Z" fill="#212121"/>
</svg>
