<svg width="20" height="20" viewBox="0 0 20 20" fill="none" xmlns="http://www.w3.org/2000/svg">
<path d="M3.69362 9.9997L0.299331 1.2715C0.0631011 0.664028 0.655441 0.0830877 1.2414 0.289588L1.33375 0.328848L19.3337 9.3288C19.852 9.588 19.8844 10.2975 19.4309 10.6129L19.3337 10.6705L1.33375 19.6705C0.750771 19.962 0.117461 19.426 0.268801 18.8234L0.299331 18.7278L3.69362 9.9997ZM2.4021 2.54007L5.01109 9.2491L11.6387 9.2497C12.0184 9.2497 12.3322 9.5318 12.3818 9.8979L12.3887 9.9997C12.3887 10.3794 12.1065 10.6932 11.7404 10.7428L11.6387 10.7497L5.01109 10.7491L2.4021 17.4593L17.3213 9.9997L2.4021 2.54007Z" fill="#212121"/>
</svg>
